<svg version="1.1" id="Layer_1" xmlns="http://www.w3.org/2000/svg" xmlns:xlink="http://www.w3.org/1999/xlink" x="0px" y="0px"
	 width="100%" viewBox="0 0 484 484" enable-background="new 0 0 484 484" xml:space="preserve">
<path fill="#FFFFFE" opacity="1.000000" stroke="none" 
	d="
M485.000000,251.000000 
	C485.000000,328.926727 485.000000,406.853455 485.000000,485.000000 
	C407.979248,485.000000 330.958282,485.000000 253.699036,484.641418 
	C262.051270,483.419403 270.711609,482.990173 279.221100,481.622498 
	C337.049957,472.327942 385.710999,446.049255 424.347717,401.917084 
	C458.201050,363.248657 477.927002,318.258545 483.074036,267.001282 
	C483.610687,261.656952 484.353058,256.333252 485.000000,251.000000 
z"/>
<path fill="#FFFFFF" opacity="1.000000" stroke="none" 
	d="
M258.000000,1.000000 
	C333.595123,1.000000 409.190247,1.000000 485.000000,1.000000 
	C485.000000,79.354095 485.000000,157.708389 484.641724,236.296661 
	C482.998444,223.986343 482.633179,211.265945 480.271027,198.927856 
	C469.373657,142.008926 441.861450,94.493584 397.272736,57.369919 
	C386.345490,48.272114 373.788696,41.131584 361.751221,32.837135 
	C329.306244,14.672446 294.874176,4.240918 258.013763,1.682952 
	C257.986450,1.456328 258.000000,1.000000 258.000000,1.000000 
z"/>
<path fill="#FFFFFF" opacity="1.000000" stroke="none" 
	d="
M232.000000,485.000000 
	C155.073288,485.000000 78.146561,485.000000 1.000000,485.000000 
	C1.000000,408.979248 1.000000,332.958282 1.233397,256.468811 
	C1.466795,256.000336 1.932764,256.028076 1.976077,256.483643 
	C2.654743,263.386169 3.042135,269.868835 3.963866,276.274628 
	C13.039852,339.350555 42.652130,390.824829 91.789162,431.198730 
	C92.510231,431.791168 93.653000,431.870392 94.620697,432.534851 
	C95.663307,433.936890 96.556290,435.167450 97.723610,436.024261 
	C133.636124,462.382874 173.580826,478.425537 218.010712,483.010529 
	C222.692383,483.493622 227.337769,484.328369 232.000000,485.000000 
z"/>
<path fill="#FFFFFE" opacity="1.000000" stroke="none" 
	d="
M1.000000,230.000000 
	C1.000000,153.739624 1.000000,77.479248 1.000000,1.000000 
	C77.020752,1.000000 153.041718,1.000000 229.537048,1.231016 
	C230.011429,1.462031 229.963669,1.921730 229.512543,1.968850 
	C222.607941,2.663882 216.123367,3.090897 209.705856,3.994242 
	C152.284882,12.076944 103.699341,37.415104 64.644325,80.140266 
	C25.966234,122.453079 5.059618,172.582245 1.682112,229.973221 
	C1.454954,229.986938 1.000000,230.000000 1.000000,230.000000 
z"/>
<path fill="#D29178" opacity="1.000000" stroke="none" 
	d="
M232.468536,485.000000 
	C227.337769,484.328369 222.692383,483.493622 218.010712,483.010529 
	C173.580826,478.425537 133.636124,462.382874 97.723610,436.024261 
	C96.556290,435.167450 95.663307,433.936890 94.835800,432.343262 
	C95.382111,431.621460 95.735069,431.436920 96.389374,431.337646 
	C100.103424,433.418793 103.651192,435.216766 106.908722,437.440033 
	C162.463501,475.356140 223.419846,488.524139 289.353333,475.610260 
	C343.654114,464.974792 388.787933,437.886383 424.459686,395.419556 
	C457.850616,355.668060 476.399658,309.773926 479.818024,258.040375 
	C482.187164,222.185760 476.812103,187.333466 463.020172,154.002426 
	C448.737640,119.485817 428.353912,89.123627 399.674408,64.953987 
	C387.763367,54.915958 374.592621,46.372700 361.996704,36.743614 
	C361.992798,35.255424 361.986938,34.173309 361.981079,33.091194 
	C373.788696,41.131584 386.345490,48.272114 397.272736,57.369919 
	C441.861450,94.493584 469.373657,142.008926 480.271027,198.927856 
	C482.633179,211.265945 482.998444,223.986343 484.641724,236.765320 
	C485.000000,241.356903 485.000000,245.713806 485.000000,250.535355 
	C484.353058,256.333252 483.610687,261.656952 483.074036,267.001282 
	C477.927002,318.258545 458.201050,363.248657 424.347717,401.917084 
	C385.710999,446.049255 337.049957,472.327942 279.221100,481.622498 
	C270.711609,482.990173 262.051270,483.419403 253.230377,484.641418 
	C246.312363,485.000000 239.624710,485.000000 232.468536,485.000000 
z"/>
<path fill="#F5DCC3" opacity="1.000000" stroke="none" 
	d="
M229.963669,1.921730 
	C229.963669,1.921730 230.011429,1.462031 230.005707,1.231016 
	C239.020889,1.000000 248.041794,1.000000 257.531342,1.000000 
	C258.000000,1.000000 257.986450,1.456328 257.544617,1.736026 
	C248.056427,1.984393 239.010056,1.953062 229.963669,1.921730 
z"/>
<path fill="#F5DCC3" opacity="1.000000" stroke="none" 
	d="
M1.000000,230.468658 
	C1.000000,230.000000 1.454954,229.986938 1.734048,230.442368 
	C1.986349,239.274551 1.959556,247.651321 1.932764,256.028076 
	C1.932764,256.028076 1.466795,256.000336 1.233397,256.000183 
	C1.000000,247.645767 1.000000,239.291534 1.000000,230.468658 
z"/>
<path fill="#D19076" opacity="1.000000" stroke="none" 
	d="
M1.976077,256.483643 
	C1.959556,247.651321 1.986349,239.274551 1.961205,230.428650 
	C5.059618,172.582245 25.966234,122.453079 64.644325,80.140266 
	C103.699341,37.415104 152.284882,12.076944 209.705856,3.994242 
	C216.123367,3.090897 222.607941,2.663882 229.512543,1.968850 
	C239.010056,1.953062 248.056427,1.984393 257.571960,1.962650 
	C294.874176,4.240918 329.306244,14.672446 361.751221,32.837139 
	C361.986938,34.173309 361.992798,35.255424 361.642334,36.661949 
	C354.442932,33.560631 347.699738,29.915518 340.740326,26.745058 
	C298.098297,7.318895 253.499130,0.894908 207.251862,8.214969 
	C146.300949,17.862333 95.896233,46.645985 57.464169,94.951645 
	C14.731339,148.662979 -1.567369,210.219742 8.273869,278.024109 
	C16.570189,335.184357 43.252808,382.912537 86.453239,421.356567 
	C89.883667,424.409271 92.886505,427.942474 96.088028,431.252380 
	C95.735069,431.436920 95.382111,431.621460 94.814056,431.997559 
	C93.653000,431.870392 92.510231,431.791168 91.789162,431.198730 
	C42.652130,390.824829 13.039852,339.350555 3.963866,276.274628 
	C3.042135,269.868835 2.654743,263.386169 1.976077,256.483643 
z"/>
<path fill="#FFFEFE" opacity="1.000000" stroke="none" 
	d="
M96.389381,431.337646 
	C92.886505,427.942474 89.883667,424.409271 86.453239,421.356567 
	C43.252808,382.912537 16.570189,335.184357 8.273869,278.024109 
	C-1.567369,210.219742 14.731339,148.662979 57.464169,94.951645 
	C95.896233,46.645985 146.300949,17.862333 207.251862,8.214969 
	C253.499130,0.894908 298.098297,7.318895 340.740326,26.745058 
	C347.699738,29.915518 354.442932,33.560631 361.640381,37.068027 
	C374.592621,46.372700 387.763367,54.915958 399.674408,64.953987 
	C428.353912,89.123627 448.737640,119.485817 463.020172,154.002426 
	C476.812103,187.333466 482.187164,222.185760 479.818024,258.040375 
	C476.399658,309.773926 457.850616,355.668060 424.459686,395.419556 
	C388.787933,437.886383 343.654114,464.974792 289.353333,475.610260 
	C223.419846,488.524139 162.463501,475.356140 106.908722,437.440033 
	C103.651192,435.216766 100.103424,433.418793 96.389381,431.337646 
M65.676926,135.014587 
	C65.960930,134.805145 66.128548,134.525894 66.801186,134.115341 
	C67.587265,133.469177 68.373344,132.823029 69.854149,132.203033 
	C72.380463,133.492355 74.906776,134.781693 77.938889,136.329163 
	C78.591972,135.490952 79.650253,134.132690 80.752068,132.718552 
	C72.735954,129.943649 65.097633,127.299515 56.441605,124.303093 
	C57.220184,126.642265 57.612213,127.820076 58.069408,129.723785 
	C60.800457,136.165115 63.531506,142.606445 66.335022,149.218674 
	C67.391144,148.047928 68.659294,146.642151 70.038673,145.113068 
	C65.465805,143.444885 63.659771,140.624786 64.683121,136.024643 
	C64.938583,135.807831 65.117302,135.539856 65.676926,135.014587 
M341.134521,412.996826 
	C341.134521,412.996826 340.979950,413.003357 340.734253,412.401459 
	C339.729401,410.105743 339.098297,410.189148 335.326080,413.177307 
	C332.736542,414.703766 330.146973,416.230194 327.557434,417.756653 
	C327.714630,418.049347 327.871796,418.342041 328.028992,418.634705 
	C329.601624,418.002075 331.174255,417.369446 333.102112,416.593933 
	C335.839874,421.044952 338.463654,425.310669 341.200378,429.759979 
	C342.108398,428.967041 342.931458,428.248291 342.731812,428.422638 
	C340.302856,422.879517 338.129272,417.919250 336.802551,412.990326 
	C338.203278,412.986389 339.604034,412.982452 341.134521,412.996826 
M105.083298,111.181435 
	C109.667503,108.476128 109.805824,107.820526 106.701088,104.863327 
	C105.762306,106.785553 104.782967,108.790833 103.160355,111.043610 
	C101.722313,111.871407 100.284279,112.699203 98.348572,113.026672 
	C94.367386,107.713776 90.386200,102.400871 86.177849,96.784813 
	C85.377121,97.495033 83.867165,98.834297 83.448990,99.205200 
	C88.304626,105.497696 92.816559,111.344765 97.508453,117.425049 
	C97.882599,116.919540 98.518250,116.060722 99.838928,115.077713 
	C101.362389,113.833885 102.885849,112.590065 105.083298,111.181435 
M365.060974,402.107880 
	C365.060974,402.107880 365.134216,402.149414 365.833191,402.351715 
	C368.335724,403.344879 370.838257,404.338074 373.746002,405.492065 
	C374.202515,404.940979 374.980164,404.002167 375.750031,403.072754 
	C369.787415,400.353149 364.196808,397.803253 357.365997,394.687714 
	C358.611725,398.337677 359.396545,400.637146 360.172821,403.698700 
	C361.224304,407.081879 362.275787,410.465057 363.479523,414.338074 
	C364.761108,413.281342 365.584015,412.602814 366.571228,411.788788 
	C363.164886,409.888947 361.932251,407.508453 364.618896,403.827728 
	C364.772064,403.226959 364.925232,402.626221 365.060974,402.107880 
M247.209442,443.809845 
	C247.554977,448.681976 247.900528,453.554108 248.268570,458.743530 
	C249.323334,458.688354 250.722153,458.615173 251.259415,458.587067 
	C250.884521,453.272644 250.531540,448.269012 250.919922,443.028564 
	C252.869598,443.295013 254.819275,443.561432 257.277039,443.897308 
	C255.982803,439.082764 252.435226,441.544250 249.217941,441.198059 
	C248.518372,441.313934 247.818817,441.429810 246.333115,441.248383 
	C244.765793,441.321503 243.198486,441.394592 241.631165,441.467682 
	C241.657898,441.899017 241.684616,442.330383 241.711349,442.761719 
	C243.474030,442.841034 245.236710,442.920349 247.209442,443.809845 
M419.958771,229.998413 
	C424.823761,229.291397 429.688751,228.584366 434.765686,227.846542 
	C434.635803,226.862686 434.490479,225.762054 434.444580,225.414444 
	C428.792236,225.952866 423.413910,226.465195 418.031769,226.228790 
	C418.257416,224.734299 418.483063,223.239807 418.900238,220.476654 
	C415.362030,222.880676 415.568604,224.790131 417.077576,227.659790 
	C417.117004,228.095749 417.156464,228.531723 417.091370,229.750137 
	C417.539581,232.246613 417.158844,235.211182 420.403412,237.044891 
	C419.859222,234.071243 419.497314,232.093689 419.958771,229.998413 
M431.989929,256.558411 
	C427.647064,260.133636 423.304169,263.708862 418.961304,267.284088 
	C419.444519,267.864960 419.927765,268.445831 420.410980,269.026733 
	C425.623291,264.705688 430.835632,260.384644 436.538330,255.758514 
	C436.342102,255.207062 436.145874,254.655609 435.236633,254.115982 
	C434.527008,254.178848 433.817352,254.241730 432.193237,254.098083 
	C428.309875,254.098083 424.426483,254.098083 420.349976,254.098083 
	C420.349976,254.707932 420.349976,255.845703 420.349976,255.980576 
	C424.571136,255.980576 428.487274,255.980576 431.989929,256.558411 
M37.817818,282.152100 
	C39.418850,280.759033 40.811172,278.801208 42.672764,278.113220 
	C45.098980,277.216614 47.950089,277.538452 50.509602,276.899963 
	C51.533958,276.644440 52.268768,275.228149 53.135376,274.340240 
	C49.002567,274.087128 45.896946,274.575165 42.785446,275.022308 
	C37.603508,275.766968 36.090874,277.568726 36.158756,283.675446 
	C37.672028,289.217468 41.922188,289.259003 46.422779,288.768250 
	C49.139462,288.472046 51.852280,288.140381 54.822155,287.794952 
	C54.770668,286.931183 54.706726,285.858490 54.657360,285.030304 
	C51.056873,285.652283 47.750282,286.178467 44.462570,286.803864 
	C41.050186,287.452972 38.602268,286.539154 37.817818,282.152100 
M407.422913,355.492645 
	C401.838257,357.003876 395.266388,354.348724 389.388885,359.522095 
	C391.259827,359.905273 392.031097,360.063232 393.198120,360.714447 
	C393.950348,361.106079 394.702576,361.497681 396.017303,362.182159 
	C395.571198,360.696045 395.321289,359.863434 395.966309,359.005768 
	C400.547760,358.582794 405.139130,358.243835 409.706970,357.705383 
	C412.444672,357.382660 413.090424,356.320404 409.994965,354.122589 
	C406.208008,351.372589 402.421051,348.622559 398.377106,345.685913 
	C397.824921,346.563965 397.040009,347.812042 396.840088,348.129944 
	C400.870911,350.598755 404.495636,352.818787 407.422913,355.492645 
M303.293274,429.326904 
	C302.083740,429.742798 300.874237,430.158661 299.987152,430.463684 
	C302.248596,436.011658 304.420135,441.339020 306.591644,446.666351 
	C307.890381,445.809143 308.370819,444.830139 308.248718,443.933167 
	C307.964905,441.848114 307.390472,439.802582 307.657104,437.906525 
	C310.089935,439.258179 312.450470,440.774017 314.986725,441.890839 
	C316.219330,442.433624 317.780670,442.230011 319.193176,442.364288 
	C317.540344,440.261261 315.589020,439.620758 314.144379,438.386993 
	C312.973419,437.386871 312.242188,435.744202 311.623199,434.258484 
	C310.875183,432.463074 310.982910,429.641235 309.743195,428.901733 
	C308.399628,428.100372 305.931030,429.185272 303.293274,429.326904 
M211.624908,444.396820 
	C214.693970,448.981567 217.763031,453.566284 220.832108,458.151031 
	C220.976532,451.338379 212.781891,440.256500 208.697235,439.838196 
	C209.104233,440.898865 209.505676,441.945099 209.411499,443.582733 
	C208.646378,447.945038 207.881271,452.307373 207.062103,456.977875 
	C208.144501,456.875885 209.312820,456.765808 209.648880,456.734161 
	C210.151459,452.134064 210.590210,448.118225 211.624908,444.396820 
M263.700745,61.167206 
	C264.149872,54.336697 264.598969,47.506191 265.072296,40.307560 
	C264.450317,40.277512 262.710266,40.193443 261.547272,40.137253 
	C260.928772,47.596478 260.343628,54.653519 259.273224,61.881748 
	C259.110138,62.173588 258.947052,62.465431 258.783966,62.757278 
	C259.182251,62.852894 259.580536,62.948513 260.783722,63.160217 
	C261.865051,63.223225 262.946350,63.286236 264.620331,63.784874 
	C266.874207,64.128166 269.121460,64.525566 271.383514,64.802132 
	C274.819763,65.222282 275.991852,63.579994 275.686951,61.234749 
	C271.521057,61.536095 267.737823,61.809761 263.700745,61.167206 
M396.996460,96.873848 
	C397.361084,96.769691 397.725708,96.665535 398.090332,96.561378 
	C397.744385,96.375038 397.398438,96.188698 397.035950,95.307129 
	C395.965393,94.033493 394.894836,92.759857 394.134857,91.855705 
	C389.664795,98.481438 386.177460,105.247002 378.792755,109.161278 
	C380.273651,110.353409 381.789215,111.573456 382.553741,112.188911 
	C387.314819,106.892616 391.865601,101.830261 396.996460,96.873848 
M230.327194,55.479214 
	C231.110580,57.826275 231.893967,60.173340 232.812439,62.925156 
	C234.247223,62.835812 236.242859,62.711548 237.734268,62.618679 
	C233.521790,54.850288 229.517624,47.466049 224.881287,38.916000 
	C224.282364,41.433800 224.031128,42.490028 223.265610,44.088196 
	C220.819962,50.640553 218.374329,57.192905 215.901840,63.817223 
	C217.736313,63.817223 219.359802,63.817223 221.063293,63.817223 
	C218.440582,57.505680 220.433914,53.504784 227.046066,54.644875 
	C228.019867,54.812782 229.033722,54.748230 230.327194,55.479214 
M185.311615,57.175125 
	C183.208054,55.339504 180.951370,53.649269 179.037384,51.633633 
	C176.279526,48.729279 176.385788,48.628372 172.557266,50.938351 
	C179.234390,55.601139 185.958603,60.230011 184.794022,70.244118 
	C186.584381,69.807564 187.984589,69.466141 188.968460,69.226227 
	C188.136673,65.267036 187.376755,61.649998 186.943420,57.329185 
	C188.421341,53.427917 189.899261,49.526649 191.531204,45.218819 
	C189.602173,45.730343 187.964066,46.164722 187.051254,46.406776 
	C186.669800,50.451187 186.353058,53.809483 185.311615,57.175125 
M420.063293,319.743011 
	C422.430695,320.385529 424.798065,321.028046 427.374756,321.727356 
	C427.564697,321.001892 427.931396,319.893707 427.852448,319.860962 
	C422.704132,317.727600 417.519745,315.681305 411.272583,313.204712 
	C411.786102,319.345001 418.007751,321.159576 419.489746,325.460999 
	C415.209747,327.942780 409.537140,325.464417 405.044617,330.360718 
	C407.486084,330.615814 408.757477,330.748627 410.421600,331.462585 
	C414.086823,333.140289 417.752045,334.818024 421.606720,336.582428 
	C422.031555,335.506958 422.376343,334.634094 422.574127,334.133423 
	C418.821075,332.666931 415.356110,331.313019 412.719971,329.844757 
	C416.611755,329.300232 420.503540,328.755707 424.723755,328.165222 
	C422.400513,325.285095 420.477539,322.901215 418.929077,320.089508 
	C419.051910,319.945160 419.174774,319.800812 420.063293,319.743011 
M329.279083,65.027740 
	C329.866028,62.234818 330.452972,59.441895 331.159637,56.079399 
	C330.604156,55.939899 328.794403,55.485390 326.790100,54.698517 
	C326.553070,54.643837 326.316040,54.589157 326.079010,54.534477 
	C326.117157,54.626831 326.137848,54.784801 326.196381,54.800358 
	C326.474091,54.874176 326.762085,54.909161 326.925201,55.739826 
	C325.160950,62.824135 323.291656,69.865845 318.583374,76.086281 
	C320.480011,76.723198 322.279022,77.327332 323.398346,77.703217 
	C324.500458,74.201645 325.475555,71.103668 326.538483,67.726730 
	C331.749420,71.961182 328.147552,81.138474 336.542786,82.597588 
	C334.484283,77.174606 332.551880,72.083786 331.076630,66.404289 
	C335.134552,64.554527 339.192505,62.704773 343.972809,60.525730 
	C341.969543,60.021801 339.948517,58.798832 338.783508,59.358311 
	C335.659760,60.858479 332.902496,63.121788 329.279083,65.027740 
M399.889343,174.284531 
	C394.233582,164.178177 389.250458,153.616150 382.778564,144.062683 
	C370.265656,125.591690 354.228027,110.561150 334.540497,98.587883 
	C326.535370,94.311180 318.829620,89.304588 310.475922,85.877655 
	C260.693817,65.455627 211.530899,67.255890 163.455078,91.471611 
	C143.801819,101.370926 126.690170,114.751709 112.141708,132.241882 
	C107.560555,138.361816 102.547867,144.208389 98.469223,150.646652 
	C74.362900,188.699295 66.146790,229.997528 74.376976,274.326019 
	C79.534737,302.106171 90.914917,327.146851 109.256592,349.621674 
	C114.690804,355.464966 119.781471,361.678436 125.614548,367.091980 
	C165.798431,404.385742 213.620209,418.326080 267.431030,411.488983 
	C308.684692,406.247437 343.090485,387.081116 370.893372,356.210602 
	C380.137329,345.946716 388.287292,334.852081 394.607849,321.748657 
	C406.660126,299.443665 413.153564,275.587921 413.993744,250.284561 
	C414.238922,242.900269 413.191589,235.482498 413.051178,228.074112 
	C412.696899,209.378464 407.554291,191.902390 399.889343,174.284531 
M60.077290,311.243805 
	C59.452820,309.381042 58.828350,307.518280 58.263493,305.833344 
	C53.646362,307.273682 49.366478,308.978088 44.923485,309.869537 
	C41.777340,310.500793 41.535645,311.713684 42.532753,313.996582 
	C45.018257,313.292877 47.371506,312.626587 49.784615,311.943359 
	C50.917686,316.970154 41.997574,318.366364 46.518940,323.790741 
	C48.455395,320.996735 50.271828,318.375885 52.033115,315.834595 
	C58.308884,318.773560 60.186779,317.770386 60.077290,311.243805 
M423.217010,144.933731 
	C426.305359,141.953934 425.515045,138.390579 425.012146,134.706039 
	C424.170227,128.537308 425.430634,127.328239 431.464417,127.273842 
	C429.119385,126.500038 426.109467,125.278610 424.487122,126.287811 
	C422.700165,127.399422 422.023285,130.502747 421.199036,132.856171 
	C420.853088,133.843918 421.308624,135.144974 421.506287,136.285110 
	C422.561890,142.374054 421.832245,143.442749 415.748047,145.399323 
	C418.024994,145.399323 420.301941,145.399323 423.217010,144.933731 
M366.443756,74.504532 
	C364.958252,81.907097 360.739410,87.708191 355.838928,93.676643 
	C357.005585,94.314575 358.634857,95.205460 360.053436,95.981140 
	C363.633820,88.881134 366.164795,81.739632 372.419067,76.245148 
	C370.447754,75.470711 368.441864,74.682701 366.443756,74.504532 
M44.937279,255.376480 
	C51.595997,258.103882 53.807037,255.069199 52.471718,244.563538 
	C46.772182,244.563538 41.019989,244.563538 35.110065,244.563538 
	C35.203087,245.697464 35.305424,246.944885 35.401390,248.114685 
	C37.247486,247.996521 38.708790,247.843781 40.171116,247.833313 
	C40.953148,247.827698 41.736938,248.067337 42.168900,248.138474 
	C42.974331,250.635040 43.656326,252.749008 44.937279,255.376480 
M148.365906,68.231880 
	C150.027130,72.640793 151.688354,77.049698 153.518005,81.905579 
	C154.728165,81.350845 156.438751,80.566727 156.870255,80.368927 
	C153.989120,73.142746 151.258728,66.294617 148.430634,59.201420 
	C147.160492,59.802486 145.545120,60.566936 144.430771,61.094280 
	C145.710876,63.331455 146.910233,65.427483 148.365906,68.231880 
M184.206146,438.360748 
	C185.922333,435.746368 186.032928,433.771210 182.625336,433.374664 
	C181.001022,438.868286 179.405823,444.263519 177.722885,449.955414 
	C179.468872,450.470520 181.297760,451.010101 181.885315,451.183472 
	C182.222565,448.323273 182.542847,445.606934 182.984100,441.864685 
	C185.604706,443.791809 186.834000,444.695801 188.063278,445.599792 
	C188.404190,445.145142 188.745102,444.690491 189.086014,444.235870 
	C188.239899,443.587341 187.304092,443.025726 186.570129,442.268524 
	C185.633545,441.302246 184.860031,440.177856 184.206146,438.360748 
M402.195251,114.765022 
	C406.899597,107.982399 407.083282,104.575851 402.612305,100.909447 
	C403.933807,109.849197 398.869690,114.340240 391.312012,117.110092 
	C391.586487,117.634544 391.860962,118.158997 392.135437,118.683449 
	C395.307922,117.552383 398.480377,116.421310 402.195251,114.765022 
M380.495148,376.262756 
	C377.224091,373.305664 377.648254,377.176056 376.960480,377.602997 
	C381.479858,381.305115 385.835358,384.873016 390.428192,388.635315 
	C391.067291,387.690460 391.746643,386.686066 392.006409,386.301971 
	C388.106567,382.932770 384.527130,379.840363 380.495148,376.262756 
M431.448242,295.040100 
	C426.665649,294.010620 421.883057,292.981140 416.931519,291.915283 
	C416.838623,292.350952 416.512177,293.881897 416.184357,295.419128 
	C420.995239,296.232635 425.369568,297.036560 429.766998,297.683014 
	C431.438416,297.928741 433.871033,298.511627 431.448242,295.040100 
M93.669556,381.206177 
	C91.091621,384.390198 88.513687,387.574219 85.754150,390.982544 
	C85.567490,390.780060 86.312363,391.588074 86.439972,391.726501 
	C90.311325,387.466217 94.019714,383.385254 97.728104,379.304291 
	C98.224174,379.667053 98.720245,380.029785 99.216316,380.392517 
	C98.410728,379.416565 97.605148,378.440613 96.779457,377.440308 
	C95.794846,378.672119 94.977150,379.695099 93.669556,381.206177 
M59.098919,343.492645 
	C62.750095,341.703735 66.401268,339.914795 70.205475,338.050903 
	C69.562233,336.777649 69.097717,335.858154 68.984993,335.635040 
	C63.717159,338.263092 58.760612,340.735870 53.616032,343.302460 
	C54.230030,347.641479 56.519764,345.042908 59.098919,343.492645 
M129.592575,420.975403 
	C128.383469,422.384125 127.174347,423.792847 125.747597,425.455109 
	C126.876183,426.055145 127.947052,426.624451 129.077209,427.225311 
	C131.624283,422.736969 134.067978,418.639465 136.253555,414.408661 
	C136.706772,413.531311 136.201752,412.158905 136.138351,411.014679 
	C135.723358,411.115784 135.308365,411.216919 134.893356,411.318024 
	C133.251236,414.329468 131.609131,417.340912 129.592575,420.975403 
M79.919006,359.022736 
	C81.361855,358.059601 81.361855,358.059601 79.642090,355.810577 
	C75.025238,359.017609 70.421288,362.215668 65.817345,365.413727 
	C66.891281,366.302643 68.315018,366.643280 69.191673,366.100433 
	C72.655624,363.955414 75.948036,361.533386 79.919006,359.022736 
M108.092163,403.464508 
	C110.168045,401.063477 112.243927,398.662415 114.551743,395.993103 
	C113.898453,395.216370 113.118980,394.289612 111.818985,392.743958 
	C110.479553,399.389771 103.531479,402.074738 102.391403,408.075928 
	C102.762268,408.294678 103.133133,408.513397 103.503998,408.732147 
	C104.871651,407.152924 106.239304,405.573730 108.092163,403.464508 
M279.190399,453.371490 
	C277.252472,440.805817 276.589355,439.057098 273.306274,438.438629 
	C274.437347,443.912689 275.550323,449.299194 276.789795,455.297791 
	C277.789825,454.798401 278.652557,454.367584 279.190399,453.371490 
M144.527924,418.203064 
	C144.061386,417.813202 143.594864,417.423309 142.346832,416.380310 
	C144.357620,423.199310 140.609451,426.653656 135.770432,430.182129 
	C143.546249,429.161316 146.434326,425.161957 144.527924,418.203064 
M400.928223,363.702026 
	C399.839874,363.208832 398.751495,362.715637 397.663147,362.222443 
	C397.512238,362.564697 397.361298,362.906952 397.210388,363.249207 
	C399.869843,365.102051 402.529266,366.954895 405.188721,368.807739 
	C405.525269,368.374725 405.861816,367.941711 406.198395,367.508728 
	C404.636932,366.375580 403.075439,365.242432 400.928223,363.702026 
M386.199280,115.136086 
	C386.586945,115.200500 386.974609,115.264923 387.362274,115.329338 
	C387.194916,114.870773 387.027588,114.412209 386.860229,113.953651 
	C386.600189,114.183022 386.340149,114.412399 386.199280,115.136086 
M433.375641,130.616653 
	C432.964142,130.534012 432.552612,130.451370 432.141113,130.368729 
	C432.121155,130.457962 432.101166,130.547195 432.081207,130.636429 
	C432.553314,130.739029 433.025452,130.841614 433.375641,130.616653 
M413.602936,142.914505 
	C413.602936,142.914505 413.418121,142.990662 413.418121,142.990662 
	C413.418121,142.990662 413.616302,143.083420 413.602936,142.914505 
M140.823227,415.242828 
	C140.879303,415.411804 140.935364,415.580811 140.991425,415.749786 
	C141.045914,415.579803 141.100403,415.409851 140.823227,415.242828 
z"/>
<path fill="#D39176" opacity="1.000000" stroke="none" 
	d="
M394.071136,322.189148 
	C388.287292,334.852081 380.137329,345.946716 370.893372,356.210602 
	C343.090485,387.081116 308.684692,406.247437 267.431030,411.488983 
	C213.620209,418.326080 165.798431,404.385742 125.614548,367.091980 
	C119.781471,361.678436 114.690804,355.464966 109.478363,349.257019 
	C110.130989,347.936676 110.561844,346.980988 111.281860,346.187653 
	C123.178406,361.180237 137.095779,373.495331 152.979080,383.500427 
	C186.601379,404.679565 223.324448,412.512268 262.699402,408.107727 
	C296.731995,404.300812 326.694489,391.105072 352.646149,368.732025 
	C368.715088,354.878876 381.106201,338.119537 392.098755,319.985718 
	C392.997498,320.756958 393.534332,321.473053 394.071136,322.189148 
z"/>
<path fill="#D39176" opacity="1.000000" stroke="none" 
	d="
M112.677467,131.882126 
	C126.690170,114.751709 143.801819,101.370926 163.455078,91.471611 
	C211.530899,67.255890 260.693817,65.455627 310.475922,85.877655 
	C318.829620,89.304588 326.535370,94.311180 334.721436,99.200287 
	C334.556427,100.671959 334.210449,101.531227 333.534912,102.249680 
	C314.260010,90.636108 294.189545,82.191200 272.190277,78.476593 
	C237.344223,72.592781 203.902740,76.772980 171.833755,91.657806 
	C149.902298,101.837296 131.252853,116.401016 115.039780,133.914124 
	C114.205933,132.985901 113.441704,132.434006 112.677467,131.882126 
z"/>
<path fill="#D08E73" opacity="1.000000" stroke="none" 
	d="
M112.409592,132.062012 
	C113.441704,132.434006 114.205933,132.985901 114.898102,134.205109 
	C108.233238,144.612595 100.871826,153.926743 95.192513,164.173233 
	C78.502403,194.285156 72.381271,226.809494 76.264175,260.935303 
	C77.606544,272.732941 80.013939,284.644012 83.797234,295.875946 
	C89.914391,314.036713 99.202087,330.785431 110.992706,346.025330 
	C110.561844,346.980988 110.130989,347.936676 109.358582,348.943848 
	C90.914917,327.146851 79.534737,302.106171 74.376976,274.326019 
	C66.146790,229.997528 74.362900,188.699295 98.469223,150.646652 
	C102.547867,144.208389 107.560555,138.361816 112.409592,132.062012 
z"/>
<path fill="#D08E73" opacity="1.000000" stroke="none" 
	d="
M394.339478,321.968903 
	C393.534332,321.473053 392.997498,320.756958 392.183685,319.629089 
	C392.304535,318.305603 392.662170,317.373840 393.106079,316.485168 
	C409.477753,283.712524 414.310181,249.129349 407.862305,213.259094 
	C405.590698,200.622009 400.675507,188.460098 397.164368,175.808243 
	C398.225067,175.362000 399.088776,175.188736 399.952484,175.015472 
	C407.554291,191.902390 412.696899,209.378464 413.051178,228.074112 
	C413.191589,235.482498 414.238922,242.900269 413.993744,250.284561 
	C413.153564,275.587921 406.660126,299.443665 394.339478,321.968903 
z"/>
<path fill="#D28F76" opacity="1.000000" stroke="none" 
	d="
M399.920898,174.649994 
	C399.088776,175.188736 398.225067,175.362000 396.914978,175.561752 
	C390.030396,164.569275 384.260406,153.085953 377.000214,142.638184 
	C365.592041,126.221283 350.219482,113.694588 333.864471,102.390495 
	C334.210449,101.531227 334.556427,100.671959 334.932190,99.466125 
	C354.228027,110.561150 370.265656,125.591690 382.778564,144.062683 
	C389.250458,153.616150 394.233582,164.178177 399.920898,174.649994 
z"/>
<path fill="#D89D86" opacity="1.000000" stroke="none" 
	d="
M330.619507,66.992958 
	C332.551880,72.083786 334.484283,77.174606 336.542786,82.597588 
	C328.147552,81.138474 331.749420,71.961182 326.538483,67.726730 
	C325.475555,71.103668 324.500458,74.201645 323.398346,77.703217 
	C322.279022,77.327332 320.480011,76.723198 318.583374,76.086281 
	C323.291656,69.865845 325.160950,62.824135 326.968597,55.365665 
	C327.011993,54.991505 326.984619,55.030876 326.984619,55.030876 
	C328.794403,55.485390 330.604156,55.939899 331.159637,56.079399 
	C330.452972,59.441895 329.866028,62.234818 329.646332,65.317337 
	C330.215546,66.068932 330.417511,66.530945 330.619507,66.992958 
z"/>
<path fill="#DBA691" opacity="1.000000" stroke="none" 
	d="
M418.554596,320.517334 
	C420.477539,322.901215 422.400513,325.285095 424.723755,328.165222 
	C420.503540,328.755707 416.611755,329.300232 412.031982,329.923828 
	C410.905640,330.295776 410.467255,330.588623 410.028900,330.881470 
	C408.757477,330.748627 407.486084,330.615814 405.044617,330.360718 
	C409.537140,325.464417 415.209747,327.942780 419.489746,325.460999 
	C418.007751,321.159576 411.786102,319.345001 411.272583,313.204712 
	C417.519745,315.681305 422.704132,317.727600 427.852448,319.860962 
	C427.931396,319.893707 427.564697,321.001892 427.374756,321.727356 
	C424.798065,321.028046 422.430695,320.385529 419.451050,319.518219 
	C418.385956,319.307159 417.933075,319.320892 417.480194,319.334656 
	C417.838318,319.728882 418.196442,320.123108 418.554596,320.517334 
z"/>
<path fill="#DBA691" opacity="1.000000" stroke="none" 
	d="
M60.179237,311.598328 
	C60.186779,317.770386 58.308884,318.773560 52.033115,315.834595 
	C50.271828,318.375885 48.455395,320.996735 46.518940,323.790741 
	C41.997574,318.366364 50.917686,316.970154 49.784615,311.943359 
	C47.371506,312.626587 45.018257,313.292877 42.532753,313.996582 
	C41.535645,311.713684 41.777340,310.500793 44.923485,309.869537 
	C49.366478,308.978088 53.646362,307.273682 58.263493,305.833344 
	C58.828350,307.518280 59.452820,309.381042 60.179237,311.598328 
M58.253216,310.459869 
	C56.198750,310.869598 54.144287,311.279358 52.089825,311.689117 
	C53.109074,312.742554 53.978756,314.437988 55.178322,314.717438 
	C57.771656,315.321625 59.277916,314.047363 58.253216,310.459869 
z"/>
<path fill="#D89D86" opacity="1.000000" stroke="none" 
	d="
M422.897949,145.166534 
	C420.301941,145.399323 418.024994,145.399323 415.748047,145.399323 
	C421.832245,143.442749 422.561890,142.374054 421.506287,136.285110 
	C421.308624,135.144974 420.853088,133.843918 421.199036,132.856171 
	C422.023285,130.502747 422.700165,127.399422 424.487122,126.287811 
	C426.109467,125.278610 429.119385,126.500038 431.464417,127.273842 
	C425.430634,127.328239 424.170227,128.537308 425.012146,134.706039 
	C425.515045,138.390579 426.305359,141.953934 422.897949,145.166534 
z"/>
<path fill="#D89D86" opacity="1.000000" stroke="none" 
	d="
M366.439880,74.199608 
	C368.441864,74.682701 370.447754,75.470711 372.419067,76.245148 
	C366.164795,81.739632 363.633820,88.881134 360.053436,95.981140 
	C358.634857,95.205460 357.005585,94.314575 355.838928,93.676643 
	C360.739410,87.708191 364.958252,81.907097 366.439880,74.199608 
z"/>
<path fill="#DBA691" opacity="1.000000" stroke="none" 
	d="
M44.637802,255.119720 
	C43.656326,252.749008 42.974331,250.635040 42.168900,248.138474 
	C41.736938,248.067337 40.953148,247.827698 40.171116,247.833313 
	C38.708790,247.843781 37.247486,247.996521 35.401390,248.114685 
	C35.305424,246.944885 35.203087,245.697464 35.110065,244.563538 
	C41.019989,244.563538 46.772182,244.563538 52.471718,244.563538 
	C53.807037,255.069199 51.595997,258.103882 44.637802,255.119720 
M44.318428,251.753281 
	C45.859520,252.372116 47.759281,253.851974 48.852821,253.396439 
	C50.288109,252.798553 51.087971,250.675293 52.161110,249.208069 
	C51.874607,248.889084 51.588104,248.570099 51.301601,248.251129 
	C48.905178,249.228806 44.842064,244.823914 44.318428,251.753281 
z"/>
<path fill="#D89D86" opacity="1.000000" stroke="none" 
	d="
M186.616852,58.032955 
	C187.376755,61.649998 188.136673,65.267036 188.968460,69.226227 
	C187.984589,69.466141 186.584381,69.807564 184.794022,70.244118 
	C185.958603,60.230011 179.234390,55.601139 172.557266,50.938351 
	C176.385788,48.628372 176.279526,48.729279 179.037384,51.633633 
	C180.951370,53.649269 183.208054,55.339504 185.718994,57.344948 
	C186.243912,57.731010 186.407394,57.903736 186.616852,58.032955 
z"/>
<path fill="#D89D86" opacity="1.000000" stroke="none" 
	d="
M148.237732,67.877693 
	C146.910233,65.427483 145.710876,63.331455 144.430771,61.094280 
	C145.545120,60.566936 147.160492,59.802486 148.430634,59.201420 
	C151.258728,66.294617 153.989120,73.142746 156.870255,80.368927 
	C156.438751,80.566727 154.728165,81.350845 153.518005,81.905579 
	C151.688354,77.049698 150.027130,72.640793 148.237732,67.877693 
z"/>
<path fill="#D89D86" opacity="1.000000" stroke="none" 
	d="
M223.779877,43.546257 
	C224.031128,42.490028 224.282364,41.433800 224.881287,38.916000 
	C229.517624,47.466049 233.521790,54.850288 237.734268,62.618679 
	C236.242859,62.711548 234.247223,62.835812 232.812439,62.925156 
	C231.893967,60.173340 231.110580,57.826275 230.039505,54.904636 
	C229.187836,53.891678 228.623871,53.453297 228.099976,52.644711 
	C226.784180,49.927975 225.428299,47.581448 224.010376,44.810829 
	C223.892181,44.106579 223.836029,43.826420 223.779877,43.546257 
z"/>
<path fill="#D89D86" opacity="1.000000" stroke="none" 
	d="
M99.153893,115.201889 
	C98.518250,116.060722 97.882599,116.919540 97.508453,117.425049 
	C92.816559,111.344765 88.304626,105.497696 83.448990,99.205200 
	C83.867165,98.834297 85.377121,97.495033 86.177849,96.784813 
	C90.386200,102.400871 94.367386,107.713776 98.658928,113.551331 
	C99.030823,114.451294 99.092354,114.826591 99.153893,115.201889 
z"/>
<path fill="#D89D86" opacity="1.000000" stroke="none" 
	d="
M396.416382,96.767906 
	C391.865601,101.830261 387.314819,106.892616 382.553741,112.188911 
	C381.789215,111.573456 380.273651,110.353409 378.792755,109.161278 
	C386.177460,105.247002 389.664795,98.481438 394.134857,91.855705 
	C394.894836,92.759857 395.965393,94.033493 396.835815,95.805313 
	C396.562592,96.458298 396.489471,96.613098 396.416382,96.767906 
z"/>
<path fill="#D89D86" opacity="1.000000" stroke="none" 
	d="
M264.027679,63.349243 
	C262.946350,63.286236 261.865051,63.223225 260.336121,62.767044 
	C259.845184,62.152771 259.801849,61.931664 259.758484,61.710560 
	C260.343628,54.653519 260.928772,47.596478 261.547272,40.137253 
	C262.710266,40.193443 264.450317,40.277512 265.072296,40.307560 
	C264.598969,47.506191 264.149872,54.336697 263.841339,61.941917 
	C263.997192,62.927505 264.012451,63.138374 264.027679,63.349243 
z"/>
<path fill="#D89D86" opacity="1.000000" stroke="none" 
	d="
M58.004238,128.997894 
	C57.612213,127.820076 57.220184,126.642265 56.441605,124.303093 
	C65.097633,127.299515 72.735954,129.943649 80.752068,132.718552 
	C79.650253,134.132690 78.591972,135.490952 77.938889,136.329163 
	C74.906776,134.781693 72.380463,133.492355 69.237396,132.037674 
	C68.086578,131.577911 67.552498,131.283493 66.658020,130.927155 
	C64.207573,130.249512 62.117527,129.633820 59.690228,129.011093 
	C58.903397,129.001984 58.453819,128.999939 58.004238,128.997894 
z"/>
<path fill="#DBA691" opacity="1.000000" stroke="none" 
	d="
M184.111176,438.741211 
	C184.860031,440.177856 185.633545,441.302246 186.570129,442.268524 
	C187.304092,443.025726 188.239899,443.587341 189.086014,444.235870 
	C188.745102,444.690491 188.404190,445.145142 188.063278,445.599792 
	C186.834000,444.695801 185.604706,443.791809 182.984100,441.864685 
	C182.542847,445.606934 182.222565,448.323273 181.885315,451.183472 
	C181.297760,451.010101 179.468872,450.470520 177.722885,449.955414 
	C179.405823,444.263519 181.001022,438.868286 182.625336,433.374664 
	C186.032928,433.771210 185.922333,435.746368 184.111176,438.741211 
z"/>
<path fill="#D89D86" opacity="1.000000" stroke="none" 
	d="
M401.924072,115.027634 
	C398.480377,116.421310 395.307922,117.552383 392.135437,118.683449 
	C391.860962,118.158997 391.586487,117.634544 391.312012,117.110092 
	C398.869690,114.340240 403.933807,109.849197 402.612305,100.909447 
	C407.083282,104.575851 406.899597,107.982399 401.924072,115.027634 
z"/>
<path fill="#DBA691" opacity="1.000000" stroke="none" 
	d="
M360.181335,402.936615 
	C359.396545,400.637146 358.611725,398.337677 357.365997,394.687714 
	C364.196808,397.803253 369.787415,400.353149 375.750031,403.072754 
	C374.980164,404.002167 374.202515,404.940979 373.746002,405.492065 
	C370.838257,404.338074 368.335724,403.344879 365.435547,401.971436 
	C364.135956,400.951172 363.234009,400.311157 362.845703,400.035614 
	C361.717346,401.264160 360.949341,402.100372 360.181335,402.936615 
z"/>
<path fill="#D89D86" opacity="1.000000" stroke="none" 
	d="
M335.955719,412.958984 
	C338.129272,417.919250 340.302856,422.879517 342.731812,428.422638 
	C342.931458,428.248291 342.108398,428.967041 341.200378,429.759979 
	C338.463654,425.310669 335.839874,421.044952 333.102112,416.593933 
	C331.174255,417.369446 329.601624,418.002075 328.028992,418.634705 
	C327.871796,418.342041 327.714630,418.049347 327.557434,417.756653 
	C330.146973,416.230194 332.736542,414.703766 335.656372,413.083466 
	C335.986694,412.989624 335.955719,412.958984 335.955719,412.958984 
z"/>
<path fill="#DBA691" opacity="1.000000" stroke="none" 
	d="
M228.059891,53.014915 
	C228.623871,53.453297 229.187836,53.891678 229.890442,54.560646 
	C229.033722,54.748230 228.019867,54.812782 227.046066,54.644875 
	C220.433914,53.504784 218.440582,57.505680 221.063293,63.817223 
	C219.359802,63.817223 217.736313,63.817223 215.901840,63.817223 
	C218.374329,57.192905 220.819962,50.640553 223.522736,43.817226 
	C223.836029,43.826420 223.892181,44.106579 223.986984,45.177315 
	C223.373093,48.093258 222.720581,50.218632 221.862091,53.014915 
	C224.273392,53.014915 226.166641,53.014915 228.059891,53.014915 
z"/>
<path fill="#DBA691" opacity="1.000000" stroke="none" 
	d="
M380.721405,376.505341 
	C384.527130,379.840363 388.106567,382.932770 392.006409,386.301971 
	C391.746643,386.686066 391.067291,387.690460 390.428192,388.635315 
	C385.835358,384.873016 381.479858,381.305115 376.960480,377.602997 
	C377.648254,377.176056 377.224091,373.305664 380.721405,376.505341 
z"/>
<path fill="#D89D86" opacity="1.000000" stroke="none" 
	d="
M209.907135,442.991302 
	C209.505676,441.945099 209.104233,440.898865 208.697235,439.838196 
	C212.781891,440.256500 220.976532,451.338379 220.832108,458.151031 
	C217.763031,453.566284 214.693970,448.981567 211.208954,444.002258 
	C210.497711,443.402191 210.202423,443.196747 209.907135,442.991302 
z"/>
<path fill="#DBA691" opacity="1.000000" stroke="none" 
	d="
M303.953064,429.447510 
	C305.931030,429.185272 308.399628,428.100372 309.743195,428.901733 
	C310.982910,429.641235 310.875183,432.463074 311.623199,434.258484 
	C312.242188,435.744202 312.973419,437.386871 314.144379,438.386993 
	C315.589020,439.620758 317.540344,440.261261 319.193176,442.364288 
	C317.780670,442.230011 316.219330,442.433624 314.986725,441.890839 
	C312.450470,440.774017 310.089935,439.258179 307.308258,437.737305 
	C306.959412,437.568115 306.982422,437.391876 307.263855,437.153992 
	C308.230591,435.432404 309.796967,432.942932 309.449280,432.638367 
	C307.910736,431.290497 305.822083,430.570526 303.932678,429.578766 
	C303.932831,429.534241 303.953064,429.447510 303.953064,429.447510 
z"/>
<path fill="#D89D86" opacity="1.000000" stroke="none" 
	d="
M392.802368,360.221191 
	C392.031097,360.063232 391.259827,359.905273 389.388885,359.522095 
	C395.266388,354.348724 401.838257,357.003876 408.145386,355.239777 
	C409.360321,354.887573 409.852753,354.788239 410.345184,354.688904 
	C413.090424,356.320404 412.444672,357.382660 409.706970,357.705383 
	C405.139130,358.243835 400.547760,358.582794 395.208557,359.105377 
	C393.901337,359.543732 393.351868,359.882477 392.802368,360.221191 
z"/>
<path fill="#DBA691" opacity="1.000000" stroke="none" 
	d="
M36.184864,282.945801 
	C36.090874,277.568726 37.603508,275.766968 42.785446,275.022308 
	C45.896946,274.575165 49.002567,274.087128 53.135376,274.340240 
	C52.268768,275.228149 51.533958,276.644440 50.509602,276.899963 
	C47.950089,277.538452 45.098980,277.216614 42.672764,278.113220 
	C40.811172,278.801208 39.418850,280.759033 37.497208,282.548645 
	C36.846031,282.962067 36.515453,282.962280 36.184864,282.945801 
z"/>
<path fill="#D89D86" opacity="1.000000" stroke="none" 
	d="
M306.982422,437.391876 
	C306.982422,437.391876 306.959412,437.568115 306.946625,437.654602 
	C307.390472,439.802582 307.964905,441.848114 308.248718,443.933167 
	C308.370819,444.830139 307.890381,445.809143 306.591644,446.666351 
	C304.420135,441.339020 302.248596,436.011658 299.987152,430.463684 
	C300.874237,430.158661 302.083740,429.742798 303.623169,429.387207 
	C303.953064,429.447510 303.932831,429.534241 303.886444,430.002350 
	C304.887512,432.777588 305.934967,435.084717 306.982422,437.391876 
z"/>
<path fill="#DBA691" opacity="1.000000" stroke="none" 
	d="
M431.828369,295.139313 
	C433.871033,298.511627 431.438416,297.928741 429.766998,297.683014 
	C425.369568,297.036560 420.995239,296.232635 416.184357,295.419128 
	C416.512177,293.881897 416.838623,292.350952 416.931519,291.915283 
	C421.883057,292.981140 426.665649,294.010620 431.828369,295.139313 
z"/>
<path fill="#D89D86" opacity="1.000000" stroke="none" 
	d="
M433.107727,254.304596 
	C433.817352,254.241730 434.527008,254.178848 435.613220,254.435638 
	C436.009155,255.191391 436.028564,255.627487 436.047974,256.063599 
	C430.835632,260.384644 425.623291,264.705688 420.410980,269.026733 
	C419.927765,268.445831 419.444519,267.864960 418.961304,267.284088 
	C423.304169,263.708862 427.647064,260.133636 432.362854,256.107361 
	C432.859741,255.205719 432.983734,254.755157 433.107727,254.304596 
z"/>
<path fill="#DBA691" opacity="1.000000" stroke="none" 
	d="
M93.914505,380.962128 
	C94.977150,379.695099 95.794846,378.672119 96.779457,377.440308 
	C97.605148,378.440613 98.410728,379.416565 99.216316,380.392517 
	C98.720245,380.029785 98.224174,379.667053 97.728104,379.304291 
	C94.019714,383.385254 90.311325,387.466217 86.439972,391.726501 
	C86.312363,391.588074 85.567490,390.780060 85.754150,390.982544 
	C88.513687,387.574219 91.091621,384.390198 93.914505,380.962128 
z"/>
<path fill="#DBA691" opacity="1.000000" stroke="none" 
	d="
M58.792618,343.692322 
	C56.519764,345.042908 54.230030,347.641479 53.616032,343.302460 
	C58.760612,340.735870 63.717159,338.263092 68.984993,335.635040 
	C69.097717,335.858154 69.562233,336.777649 70.205475,338.050903 
	C66.401268,339.914795 62.750095,341.703735 58.792618,343.692322 
z"/>
<path fill="#DBA691" opacity="1.000000" stroke="none" 
	d="
M129.779785,420.663879 
	C131.609131,417.340912 133.251236,414.329468 134.893356,411.318024 
	C135.308365,411.216919 135.723358,411.115784 136.138351,411.014679 
	C136.201752,412.158905 136.706772,413.531311 136.253555,414.408661 
	C134.067978,418.639465 131.624283,422.736969 129.077209,427.225311 
	C127.947052,426.624451 126.876183,426.055145 125.747597,425.455109 
	C127.174347,423.792847 128.383469,422.384125 129.779785,420.663879 
z"/>
<path fill="#D89D86" opacity="1.000000" stroke="none" 
	d="
M79.611534,359.118408 
	C75.948036,361.533386 72.655624,363.955414 69.191673,366.100433 
	C68.315018,366.643280 66.891281,366.302643 65.817345,365.413727 
	C70.421288,362.215668 75.025238,359.017609 79.642090,355.810577 
	C81.361855,358.059601 81.361855,358.059601 79.611534,359.118408 
z"/>
<path fill="#D89D86" opacity="1.000000" stroke="none" 
	d="
M418.035583,226.977524 
	C423.413910,226.465195 428.792236,225.952866 434.444580,225.414444 
	C434.490479,225.762054 434.635803,226.862686 434.765686,227.846542 
	C429.688751,228.584366 424.823761,229.291397 419.283508,229.950607 
	C418.137482,229.591095 417.666687,229.279388 417.195923,228.967682 
	C417.156464,228.531723 417.117004,228.095749 417.322754,227.328064 
	C417.567963,226.996323 418.035583,226.977524 418.035583,226.977524 
z"/>
<path fill="#DBA691" opacity="1.000000" stroke="none" 
	d="
M247.119247,441.545685 
	C247.818817,441.429810 248.518372,441.313934 249.606232,441.565918 
	C250.055862,442.377625 250.117203,442.821472 250.178558,443.265350 
	C250.531540,448.269012 250.884521,453.272644 251.259415,458.587067 
	C250.722153,458.615173 249.323334,458.688354 248.268570,458.743530 
	C247.900528,453.554108 247.554977,448.681976 247.107880,443.159363 
	C247.028198,442.185974 247.065842,441.864929 247.119247,441.545685 
z"/>
<path fill="#D89D86" opacity="1.000000" stroke="none" 
	d="
M107.849564,403.729523 
	C106.239304,405.573730 104.871651,407.152924 103.503998,408.732147 
	C103.133133,408.513397 102.762268,408.294678 102.391403,408.075928 
	C103.531479,402.074738 110.479553,399.389771 111.818985,392.743958 
	C113.118980,394.289612 113.898453,395.216370 114.551743,395.993103 
	C112.243927,398.662415 110.168045,401.063477 107.849564,403.729523 
z"/>
<path fill="#E2BAA8" opacity="1.000000" stroke="none" 
	d="
M58.036823,129.360840 
	C58.453819,128.999939 58.903397,129.001984 59.710136,129.372192 
	C61.333508,131.768219 62.599716,133.796097 63.970737,135.947739 
	C64.075546,136.071487 64.289764,136.315018 64.289764,136.315018 
	C63.659771,140.624786 65.465805,143.444885 70.038673,145.113068 
	C68.659294,146.642151 67.391144,148.047928 66.335022,149.218674 
	C63.531506,142.606445 60.800457,136.165115 58.036823,129.360840 
z"/>
<path fill="#DBA691" opacity="1.000000" stroke="none" 
	d="
M279.352844,453.654114 
	C278.652557,454.367584 277.789825,454.798401 276.789795,455.297791 
	C275.550323,449.299194 274.437347,443.912689 273.306274,438.438629 
	C276.589355,439.057098 277.252472,440.805817 279.352844,453.654114 
z"/>
<path fill="#E2BAA8" opacity="1.000000" stroke="none" 
	d="
M36.171810,283.310608 
	C36.515453,282.962280 36.846031,282.962067 37.421898,282.931152 
	C38.602268,286.539154 41.050186,287.452972 44.462570,286.803864 
	C47.750282,286.178467 51.056873,285.652283 54.657360,285.030304 
	C54.706726,285.858490 54.770668,286.931183 54.822155,287.794952 
	C51.852280,288.140381 49.139462,288.472046 46.422779,288.768250 
	C41.922188,289.259003 37.672028,289.217468 36.171810,283.310608 
z"/>
<path fill="#D89D86" opacity="1.000000" stroke="none" 
	d="
M144.691650,418.515625 
	C146.434326,425.161957 143.546249,429.161316 135.770432,430.182129 
	C140.609451,426.653656 144.357620,423.199310 142.346832,416.380310 
	C143.594864,417.423309 144.061386,417.813202 144.691650,418.515625 
z"/>
<path fill="#E2BAA8" opacity="1.000000" stroke="none" 
	d="
M360.177063,403.317657 
	C360.949341,402.100372 361.717346,401.264160 362.845703,400.035614 
	C363.234009,400.311157 364.135956,400.951172 365.086060,401.870300 
	C365.134216,402.149414 365.060974,402.107880 364.802490,402.234802 
	C364.372375,402.958954 364.200745,403.556213 364.029114,404.153442 
	C361.932251,407.508453 363.164886,409.888947 366.571228,411.788788 
	C365.584015,412.602814 364.761108,413.281342 363.479523,414.338074 
	C362.275787,410.465057 361.224304,407.081879 360.177063,403.317657 
z"/>
<path fill="#E2BAA8" opacity="1.000000" stroke="none" 
	d="
M410.170074,354.405762 
	C409.852753,354.788239 409.360321,354.887573 408.494110,355.012878 
	C404.495636,352.818787 400.870911,350.598755 396.840088,348.129944 
	C397.040009,347.812042 397.824921,346.563965 398.377106,345.685913 
	C402.421051,348.622559 406.208008,351.372589 410.170074,354.405762 
z"/>
<path fill="#E2BAA8" opacity="1.000000" stroke="none" 
	d="
M264.324005,63.567059 
	C264.012451,63.138374 263.997192,62.927505 263.968262,62.400032 
	C267.737823,61.809761 271.521057,61.536095 275.686951,61.234749 
	C275.991852,63.579994 274.819763,65.222282 271.383514,64.802132 
	C269.121460,64.525566 266.874207,64.128166 264.324005,63.567059 
z"/>
<path fill="#E2BAA8" opacity="1.000000" stroke="none" 
	d="
M186.780136,57.681068 
	C186.407394,57.903736 186.243912,57.731010 186.081345,57.341270 
	C186.353058,53.809483 186.669800,50.451187 187.051254,46.406776 
	C187.964066,46.164722 189.602173,45.730343 191.531204,45.218819 
	C189.899261,49.526649 188.421341,53.427917 186.780136,57.681068 
z"/>
<path fill="#E2BAA8" opacity="1.000000" stroke="none" 
	d="
M330.848083,66.698624 
	C330.417511,66.530945 330.215546,66.068932 330.006622,65.344452 
	C332.902496,63.121788 335.659760,60.858479 338.783508,59.358311 
	C339.948517,58.798832 341.969543,60.021801 343.972809,60.525730 
	C339.192505,62.704773 335.134552,64.554527 330.848083,66.698624 
z"/>
<path fill="#E2BAA8" opacity="1.000000" stroke="none" 
	d="
M410.225250,331.171997 
	C410.467255,330.588623 410.905640,330.295776 411.617615,329.981018 
	C415.356110,331.313019 418.821075,332.666931 422.574127,334.133423 
	C422.376343,334.634094 422.031555,335.506958 421.606720,336.582428 
	C417.752045,334.818024 414.086823,333.140289 410.225250,331.171997 
z"/>
<path fill="#E2BAA8" opacity="1.000000" stroke="none" 
	d="
M209.659317,443.287018 
	C210.202423,443.196747 210.497711,443.402191 210.910980,443.855042 
	C210.590210,448.118225 210.151459,452.134064 209.648880,456.734161 
	C209.312820,456.765808 208.144501,456.875885 207.062103,456.977875 
	C207.881271,452.307373 208.646378,447.945038 209.659317,443.287018 
z"/>
<path fill="#E2BAA8" opacity="1.000000" stroke="none" 
	d="
M432.650482,254.201340 
	C432.983734,254.755157 432.859741,255.205719 432.569580,255.818420 
	C428.487274,255.980576 424.571136,255.980576 420.349976,255.980576 
	C420.349976,255.845703 420.349976,254.707932 420.349976,254.098083 
	C424.426483,254.098083 428.309875,254.098083 432.650482,254.201340 
z"/>
<path fill="#E2BAA8" opacity="1.000000" stroke="none" 
	d="
M401.221100,363.905670 
	C403.075439,365.242432 404.636932,366.375580 406.198395,367.508728 
	C405.861816,367.941711 405.525269,368.374725 405.188721,368.807739 
	C402.529266,366.954895 399.869843,365.102051 397.210388,363.249207 
	C397.361298,362.906952 397.512238,362.564697 397.663147,362.222443 
	C398.751495,362.715637 399.839874,363.208832 401.221100,363.905670 
z"/>
<path fill="#E2BAA8" opacity="1.000000" stroke="none" 
	d="
M103.803619,110.796112 
	C104.782967,108.790833 105.762306,106.785553 106.701088,104.863327 
	C109.805824,107.820526 109.667503,108.476128 104.590401,111.128418 
	C104.097504,111.075394 103.803619,110.796112 103.803619,110.796112 
z"/>
<path fill="#E2BAA8" opacity="1.000000" stroke="none" 
	d="
M250.549240,443.146973 
	C250.117203,442.821472 250.055862,442.377625 249.962158,441.602356 
	C252.435226,441.544250 255.982803,439.082764 257.277039,443.897308 
	C254.819275,443.561432 252.869598,443.295013 250.549240,443.146973 
z"/>
<path fill="#E2BAA8" opacity="1.000000" stroke="none" 
	d="
M417.143616,229.358902 
	C417.666687,229.279388 418.137482,229.591095 418.871826,230.009460 
	C419.497314,232.093689 419.859222,234.071243 420.403412,237.044891 
	C417.158844,235.211182 417.539581,232.246613 417.143616,229.358902 
z"/>
<path fill="#E2BAA8" opacity="1.000000" stroke="none" 
	d="
M418.033691,226.603149 
	C418.035583,226.977524 417.567963,226.996323 417.334167,226.999435 
	C415.568604,224.790131 415.362030,222.880676 418.900238,220.476654 
	C418.483063,223.239807 418.257416,224.734299 418.033691,226.603149 
z"/>
<path fill="#E2BAA8" opacity="1.000000" stroke="none" 
	d="
M246.726181,441.397034 
	C247.065842,441.864929 247.028198,442.185974 247.002869,442.754272 
	C245.236710,442.920349 243.474030,442.841034 241.711349,442.761719 
	C241.684616,442.330383 241.657898,441.899017 241.631165,441.467682 
	C243.198486,441.394592 244.765793,441.321503 246.726181,441.397034 
z"/>
<path fill="#E2BAA8" opacity="1.000000" stroke="none" 
	d="
M99.496407,115.139801 
	C99.092354,114.826591 99.030823,114.451294 98.907761,113.801498 
	C100.284279,112.699203 101.722313,111.871407 103.481987,110.919861 
	C103.803619,110.796112 104.097504,111.075394 104.253403,111.210815 
	C102.885849,112.590065 101.362389,113.833885 99.496407,115.139801 
z"/>
<path fill="#D89D86" opacity="1.000000" stroke="none" 
	d="
M335.998535,413.007690 
	C339.098297,410.189148 339.729401,410.105743 340.866394,412.699371 
	C340.998505,412.997284 341.004761,412.978485 341.004761,412.978485 
	C339.604034,412.982452 338.203278,412.986389 336.379150,412.974670 
	C335.955719,412.958984 335.986694,412.989624 335.998535,413.007690 
z"/>
<path fill="#E2BAA8" opacity="1.000000" stroke="none" 
	d="
M393.000244,360.467834 
	C393.351868,359.882477 393.901337,359.543732 394.761108,359.117920 
	C395.321289,359.863434 395.571198,360.696045 396.017303,362.182159 
	C394.702576,361.497681 393.950348,361.106079 393.000244,360.467834 
z"/>
<path fill="#E2BAA8" opacity="1.000000" stroke="none" 
	d="
M67.018425,130.989090 
	C67.552498,131.283493 68.086578,131.577911 68.890038,132.024597 
	C68.373344,132.823029 67.587265,133.469177 66.438431,134.095520 
	C66.075684,134.075684 65.974106,133.972000 66.114586,133.679169 
	C66.509514,132.587265 66.763969,131.788177 67.018425,130.989090 
z"/>
<path fill="#FDFCFB" opacity="1.000000" stroke="none" 
	d="
M386.139679,114.888931 
	C386.340149,114.412399 386.600189,114.183022 386.860229,113.953644 
	C387.027588,114.412209 387.194916,114.870773 387.362274,115.329338 
	C386.974609,115.264923 386.586945,115.200500 386.139679,114.888931 
z"/>
<path fill="#D89D86" opacity="1.000000" stroke="none" 
	d="
M433.436584,130.780426 
	C433.025452,130.841614 432.553314,130.739029 432.081207,130.636429 
	C432.101166,130.547195 432.121155,130.457962 432.141113,130.368729 
	C432.552612,130.451370 432.964142,130.534012 433.436584,130.780426 
z"/>
<path fill="#D89D86" opacity="1.000000" stroke="none" 
	d="
M413.609619,142.998962 
	C413.616302,143.083420 413.418121,142.990662 413.418121,142.990662 
	C413.418121,142.990662 413.602936,142.914505 413.609619,142.998962 
z"/>
<path fill="#E2BAA8" opacity="1.000000" stroke="none" 
	d="
M436.293152,255.911057 
	C436.028564,255.627487 436.009155,255.191391 435.969727,254.429718 
	C436.145874,254.655609 436.342102,255.207062 436.293152,255.911057 
z"/>
<path fill="#FDFCFB" opacity="1.000000" stroke="none" 
	d="
M140.989075,415.241333 
	C141.100403,415.409851 141.045914,415.579803 140.991425,415.749786 
	C140.935364,415.580811 140.879303,415.411804 140.989075,415.241333 
z"/>
<path fill="#DBA691" opacity="1.000000" stroke="none" 
	d="
M364.324005,403.990601 
	C364.200745,403.556213 364.372375,402.958954 364.811218,402.193604 
	C364.925232,402.626221 364.772064,403.226959 364.324005,403.990601 
z"/>
<path fill="#D89D86" opacity="1.000000" stroke="none" 
	d="
M327.029205,54.974739 
	C326.762085,54.909161 326.474091,54.874176 326.196381,54.800358 
	C326.137848,54.784801 326.117157,54.626831 326.079010,54.534477 
	C326.316040,54.589157 326.553070,54.643837 326.887360,54.864697 
	C326.984619,55.030876 327.011993,54.991505 327.029205,54.974739 
z"/>
<path fill="#FDFCFB" opacity="1.000000" stroke="none" 
	d="
M396.706421,96.820877 
	C396.489471,96.613098 396.562592,96.458298 396.844116,96.152931 
	C397.398438,96.188698 397.744385,96.375038 398.090332,96.561378 
	C397.725708,96.665535 397.361084,96.769691 396.706421,96.820877 
z"/>
<path fill="#E2BAA8" opacity="1.000000" stroke="none" 
	d="
M259.515869,61.796154 
	C259.801849,61.931664 259.845184,62.152771 259.933685,62.709003 
	C259.580536,62.948513 259.182251,62.852894 258.783966,62.757278 
	C258.947052,62.465431 259.110138,62.173588 259.515869,61.796154 
z"/>
<path fill="#D89D86" opacity="1.000000" stroke="none" 
	d="
M340.989227,413.000305 
	C340.979950,413.003357 341.134521,412.996826 341.069641,412.987671 
	C341.004761,412.978485 340.998505,412.997284 340.989227,413.000305 
z"/>
<path fill="#E2BAA8" opacity="1.000000" stroke="none" 
	d="
M66.127724,134.126266 
	C66.128548,134.525894 65.960930,134.805145 65.380630,135.050476 
	C65.084335,135.086349 64.951248,134.950150 65.055161,134.725494 
	C65.361626,134.218048 65.633308,134.041779 65.974106,133.972000 
	C65.974106,133.972000 66.075684,134.075684 66.127724,134.126266 
z"/>
<path fill="#E2BAA8" opacity="1.000000" stroke="none" 
	d="
M65.151810,135.153534 
	C65.117302,135.539856 64.938583,135.807831 64.486443,136.169830 
	C64.289764,136.315018 64.075546,136.071487 64.101440,135.747025 
	C64.351830,135.177673 64.626472,135.020203 64.951248,134.950150 
	C64.951248,134.950150 65.084335,135.086349 65.151810,135.153534 
z"/>
<path fill="#FBF7F6" opacity="1.000000" stroke="none" 
	d="
M333.534912,102.249680 
	C350.219482,113.694588 365.592041,126.221283 377.000214,142.638184 
	C384.260406,153.085953 390.030396,164.569275 396.717987,175.834732 
	C400.675507,188.460098 405.590698,200.622009 407.862305,213.259094 
	C414.310181,249.129349 409.477753,283.712524 393.106079,316.485168 
	C392.662170,317.373840 392.304535,318.305603 391.821747,319.573914 
	C381.106201,338.119537 368.715088,354.878876 352.646149,368.732025 
	C326.694489,391.105072 296.731995,404.300812 262.699402,408.107727 
	C223.324448,412.512268 186.601379,404.679565 152.979080,383.500427 
	C137.095779,373.495331 123.178406,361.180237 111.281860,346.187653 
	C99.202087,330.785431 89.914391,314.036713 83.797234,295.875946 
	C80.013939,284.644012 77.606544,272.732941 76.264175,260.935303 
	C72.381271,226.809494 78.502403,194.285156 95.192513,164.173233 
	C100.871826,153.926743 108.233238,144.612595 114.967712,134.581436 
	C131.252853,116.401016 149.902298,101.837296 171.833755,91.657806 
	C203.902740,76.772980 237.344223,72.592781 272.190277,78.476593 
	C294.189545,82.191200 314.260010,90.636108 333.534912,102.249680 
M381.511353,155.396957 
	C356.205261,117.529800 321.844116,92.769577 276.210968,82.969620 
	C264.511139,81.722252 252.796753,79.311340 241.114334,79.457291 
	C212.225357,79.818214 184.981735,87.125389 159.955017,101.976990 
	C141.893494,112.695244 126.029297,125.883812 112.805794,143.005005 
	C109.590157,147.619644 106.049469,152.043350 103.209267,156.878525 
	C75.414795,204.196014 70.955956,253.613663 91.261536,304.680145 
	C102.367859,332.611420 120.317352,355.661011 145.239914,373.877838 
	C184.973938,402.408081 229.008606,411.848022 276.807434,402.371185 
	C315.914948,394.617523 347.559662,374.120178 372.192139,342.923706 
	C384.240692,327.664490 393.525696,310.812286 399.301270,291.336517 
	C413.439880,243.630707 407.680511,198.510925 381.511353,155.396957 
z"/>
<path fill="#FFFEFE" opacity="1.000000" stroke="none" 
	d="
M418.741821,320.303406 
	C418.196442,320.123108 417.838318,319.728882 417.480194,319.334656 
	C417.933075,319.320892 418.385956,319.307159 419.068237,319.474945 
	C419.174774,319.800812 419.051910,319.945160 418.741821,320.303406 
z"/>
<path fill="#FBF7F6" opacity="1.000000" stroke="none" 
	d="
M58.415909,310.784882 
	C59.277916,314.047363 57.771656,315.321625 55.178322,314.717438 
	C53.978756,314.437988 53.109074,312.742554 52.089825,311.689117 
	C54.144287,311.279358 56.198750,310.869598 58.415909,310.784882 
z"/>
<path fill="#FDFCFB" opacity="1.000000" stroke="none" 
	d="
M44.185322,251.371643 
	C44.842064,244.823914 48.905178,249.228806 51.301601,248.251129 
	C51.588104,248.570099 51.874607,248.889084 52.161110,249.208069 
	C51.087971,250.675293 50.288109,252.798553 48.852821,253.396439 
	C47.759281,253.851974 45.859520,252.372116 44.185322,251.371643 
z"/>
<path fill="#FDFCFB" opacity="1.000000" stroke="none" 
	d="
M228.099976,52.644711 
	C226.166641,53.014915 224.273392,53.014915 221.862091,53.014915 
	C222.720581,50.218632 223.373093,48.093258 224.049011,45.601402 
	C225.428299,47.581448 226.784180,49.927975 228.099976,52.644711 
z"/>
<path fill="#FBF7F6" opacity="1.000000" stroke="none" 
	d="
M65.055161,134.725494 
	C64.626472,135.020203 64.351830,135.177673 63.996628,135.623276 
	C62.599716,133.796097 61.333508,131.768219 60.047386,129.379242 
	C62.117527,129.633820 64.207573,130.249512 66.658020,130.927155 
	C66.763969,131.788177 66.509514,132.587265 66.114586,133.679169 
	C65.633308,134.041779 65.361626,134.218048 65.055161,134.725494 
z"/>
<path fill="#FBF7F6" opacity="1.000000" stroke="none" 
	d="
M307.263855,437.153992 
	C305.934967,435.084717 304.887512,432.777588 303.886292,430.046875 
	C305.822083,430.570526 307.910736,431.290497 309.449280,432.638367 
	C309.796967,432.942932 308.230591,435.432404 307.263855,437.153992 
z"/>
<path fill="#D39278" opacity="1.000000" stroke="none" 
	d="
M398.931030,291.994873 
	C393.525696,310.812286 384.240692,327.664490 372.192139,342.923706 
	C347.559662,374.120178 315.914948,394.617523 276.807434,402.371185 
	C229.008606,411.848022 184.973938,402.408081 145.175079,373.283325 
	C145.409180,371.784241 145.708145,370.879700 146.328674,370.089508 
	C180.682495,394.773468 218.536163,405.428314 260.369995,401.021790 
	C295.405518,397.331299 325.911926,383.342316 351.838623,359.524109 
	C372.238190,340.783508 386.248413,317.860870 395.827576,291.881836 
	C397.156647,291.948456 398.043854,291.971680 398.931030,291.994873 
z"/>
<path fill="#D19076" opacity="1.000000" stroke="none" 
	d="
M146.007111,369.975159 
	C145.708145,370.879700 145.409180,371.784241 144.969666,373.027008 
	C120.317352,355.661011 102.367859,332.611420 91.261536,304.680145 
	C70.955956,253.613663 75.414795,204.196014 103.209267,156.878525 
	C106.049469,152.043350 109.590157,147.619644 113.479027,142.963837 
	C115.037483,143.270615 115.922707,143.618591 116.647278,144.255524 
	C112.794426,149.952362 108.825127,155.193832 105.460014,160.798080 
	C93.580917,180.581604 86.109955,201.879135 83.737999,224.936859 
	C79.851395,262.718292 88.027649,297.560791 108.540955,329.554993 
	C118.628029,345.287659 131.637939,358.245270 146.007111,369.975159 
z"/>
<path fill="#D39176" opacity="1.000000" stroke="none" 
	d="
M116.807930,143.966553 
	C115.922707,143.618591 115.037483,143.270615 113.789864,142.864868 
	C126.029297,125.883812 141.893494,112.695244 159.955017,101.976990 
	C184.981735,87.125389 212.225357,79.818214 241.114334,79.457291 
	C252.796753,79.311340 264.511139,81.722252 276.600769,83.506294 
	C276.941223,84.894966 276.891876,85.746971 276.420288,86.516899 
	C271.718109,85.848045 267.433807,85.290985 263.158905,84.669678 
	C233.715622,80.390427 205.525009,85.170753 178.421188,96.832024 
	C153.974762,107.349968 133.689072,123.474648 116.807930,143.966553 
z"/>
<path fill="#D08E73" opacity="1.000000" stroke="none" 
	d="
M399.116150,291.665710 
	C398.043854,291.971680 397.156647,291.948456 395.943817,291.493042 
	C403.854034,264.663269 405.510529,237.888794 399.933167,210.772476 
	C395.905273,191.189392 388.153229,173.073349 378.078369,156.065323 
	C379.560394,156.031555 380.637482,156.024414 381.714600,156.017273 
	C407.680511,198.510925 413.439880,243.630707 399.116150,291.665710 
z"/>
<path fill="#D39278" opacity="1.000000" stroke="none" 
	d="
M381.612976,155.707123 
	C380.637482,156.024414 379.560394,156.031555 377.831970,155.858994 
	C368.716919,142.547562 358.170929,131.241776 346.322815,121.171288 
	C326.038849,103.930565 302.679016,92.744759 276.842529,86.598969 
	C276.891876,85.746971 276.941223,84.894966 276.992676,83.616928 
	C321.844116,92.769577 356.205261,117.529800 381.612976,155.707123 
z"/>
<path fill="#FDFCFB" opacity="1.000000" stroke="none" 
	d="
M276.420288,86.516899 
	C302.679016,92.744759 326.038849,103.930565 346.322815,121.171288 
	C358.170929,131.241776 368.716919,142.547562 377.427063,155.885635 
	C388.153229,173.073349 395.905273,191.189392 399.933167,210.772476 
	C405.510529,237.888794 403.854034,264.663269 395.501923,291.449585 
	C386.248413,317.860870 372.238190,340.783508 351.838623,359.524109 
	C325.911926,383.342316 295.405518,397.331299 260.369995,401.021790 
	C218.536163,405.428314 180.682495,394.773468 146.328674,370.089508 
	C131.637939,358.245270 118.628029,345.287659 108.540955,329.554993 
	C88.027649,297.560791 79.851395,262.718292 83.737999,224.936859 
	C86.109955,201.879135 93.580917,180.581604 105.460014,160.798080 
	C108.825127,155.193832 112.794426,149.952362 116.647278,144.255524 
	C133.689072,123.474648 153.974762,107.349968 178.421188,96.832024 
	C205.525009,85.170753 233.715622,80.390427 263.158905,84.669678 
	C267.433807,85.290985 271.718109,85.848045 276.420288,86.516899 
M103.144066,183.660202 
	C91.534164,211.061707 88.017853,239.550003 93.376869,268.740814 
	C108.849625,353.021576 187.558838,406.716949 272.052795,391.054291 
	C355.836151,375.523346 410.783356,290.559998 390.427368,208.014969 
	C371.059204,129.476059 296.124359,79.776024 216.523544,94.251442 
	C163.815063,103.836479 125.894989,133.945496 103.144066,183.660202 
z"/>
<path fill="#D28F76" opacity="1.000000" stroke="none" 
	d="
M103.309738,183.314346 
	C125.894989,133.945496 163.815063,103.836479 216.523544,94.251442 
	C296.124359,79.776024 371.059204,129.476059 390.427368,208.014969 
	C410.783356,290.559998 355.836151,375.523346 272.052795,391.054291 
	C187.558838,406.716949 108.849625,353.021576 93.376869,268.740814 
	C88.017853,239.550003 91.534164,211.061707 103.309738,183.314346 
M96.743629,222.396713 
	C96.178741,230.523819 94.823662,238.685913 95.181534,246.772186 
	C97.036690,288.689270 113.027306,324.397003 144.523666,352.302368 
	C179.967270,383.704895 221.826187,395.544281 268.301605,387.610107 
	C333.083984,376.550598 380.687988,326.593658 389.189545,261.012573 
	C394.972717,216.401413 381.939758,176.968781 351.562866,143.722900 
	C326.034393,115.783371 294.125824,99.614059 256.424622,96.237030 
	C220.482300,93.017563 187.342789,101.888878 157.774506,122.874031 
	C123.591942,147.134018 103.252235,180.048462 96.743629,222.396713 
z"/>
<path fill="#FFFFFE" opacity="1.000000" stroke="none" 
	d="
M96.794159,221.956665 
	C103.252235,180.048462 123.591942,147.134018 157.774506,122.874031 
	C187.342789,101.888878 220.482300,93.017563 256.424622,96.237030 
	C294.125824,99.614059 326.034393,115.783371 351.562866,143.722900 
	C381.939758,176.968781 394.972717,216.401413 389.189545,261.012573 
	C380.687988,326.593658 333.083984,376.550598 268.301605,387.610107 
	C221.826187,395.544281 179.967270,383.704895 144.523666,352.302368 
	C113.027306,324.397003 97.036690,288.689270 95.181534,246.772186 
	C94.823662,238.685913 96.178741,230.523819 96.794159,221.956665 
M225.222748,280.250183 
	C225.554459,279.312775 225.864655,278.367065 226.221207,277.439209 
	C230.559769,266.148621 234.616226,254.736664 239.384155,243.630188 
	C241.426712,238.872238 245.293350,234.246582 251.113525,235.208389 
	C256.420288,236.085373 257.298645,241.667267 258.190216,246.178391 
	C260.406952,257.394440 262.328125,268.668945 263.613281,279.999542 
	C258.901764,281.673340 255.412292,284.485199 255.035126,289.853119 
	C254.649567,295.340057 256.831421,299.296417 261.773468,302.162231 
	C263.430145,303.122864 263.993744,306.044769 264.949860,308.119537 
	C266.411469,311.291382 267.054688,315.207397 269.332275,317.563385 
	C274.871582,323.293304 282.373077,323.368774 289.821228,322.893219 
	C290.949554,322.821167 292.258423,323.001587 293.233490,323.528412 
	C298.866577,326.571838 304.191162,330.318573 310.066284,332.748627 
	C317.614319,335.870605 323.919373,333.207275 328.741486,326.604523 
	C329.712982,325.274261 332.268616,323.929901 333.674561,324.279327 
	C342.318146,326.427399 350.097504,323.261841 357.934479,320.738007 
	C359.768829,320.147247 362.172150,318.104828 362.430695,316.438171 
	C363.231934,311.272980 363.856873,305.867645 363.159760,300.744720 
	C362.508118,295.955658 357.290405,291.902100 360.842499,286.305145 
	C361.019379,286.026398 360.611115,285.374390 360.471771,284.897217 
	C358.195496,277.101959 352.193359,274.193726 344.882050,272.143250 
	C344.626495,269.506378 344.223083,266.874237 344.138306,264.231903 
	C343.297119,238.014053 336.671570,213.424896 323.349915,190.763763 
	C312.991241,173.142914 299.217468,158.796631 280.401581,150.442169 
	C249.835770,136.870575 217.290848,144.668884 193.686829,166.990891 
	C160.811386,198.080765 147.490738,237.410995 147.894470,282.705780 
	C146.373779,285.409271 144.853088,288.112762 143.316635,290.844269 
	C141.411987,290.246063 139.858459,289.624084 138.245911,289.274109 
	C129.929169,287.469177 121.267815,294.582520 122.050537,302.336365 
	C122.560272,307.386108 123.063240,312.492798 122.848526,317.543304 
	C122.639069,322.470154 124.695076,325.634888 128.912308,327.323212 
	C132.091492,328.595917 135.522812,329.585297 138.916977,329.905762 
	C147.174362,330.685425 154.625153,328.184326 160.933350,322.938751 
	C176.259262,337.169006 191.252823,338.737518 202.816010,320.013275 
	C211.638824,325.208923 220.800125,324.343079 229.964661,320.867035 
	C238.275726,317.714722 242.365173,308.381836 237.702286,302.735992 
	C235.777771,300.405792 232.796402,298.948456 230.286835,297.087524 
	C231.903366,291.239014 231.414398,286.127136 225.705841,282.641846 
	C225.248169,282.362427 225.149399,281.495148 225.222748,280.250183 
z"/>
<path fill="#F0CDA8" opacity="1.000000" stroke="none" 
	d="
M147.995728,282.002228 
	C147.490738,237.410995 160.811386,198.080765 193.686829,166.990891 
	C217.290848,144.668884 249.835770,136.870575 280.401581,150.442169 
	C299.217468,158.796631 312.991241,173.142914 323.349915,190.763763 
	C336.671570,213.424896 343.297119,238.014053 344.138306,264.231903 
	C344.223083,266.874237 344.626495,269.506378 344.434723,272.565247 
	C337.805450,272.388397 332.107849,273.644409 326.652283,276.754791 
	C324.381378,278.049530 321.505219,278.282806 318.936584,278.550781 
	C318.665283,274.801422 318.331116,271.502472 318.062988,268.198212 
	C315.889862,241.418976 308.224182,216.622330 290.682007,195.756989 
	C281.112488,184.374649 269.511902,176.209213 253.672440,175.897385 
	C234.584488,175.521591 220.979111,185.536972 209.177521,198.883743 
	C197.898315,211.639771 190.235901,226.676315 184.604858,242.539307 
	C180.520142,254.046204 178.151474,266.162231 174.589035,278.002228 
	C165.788101,276.227234 157.714020,276.290619 150.413559,281.646698 
	C149.833115,282.072571 148.812027,281.897858 147.995728,282.002228 
z"/>
<path fill="#F5DCC3" opacity="1.000000" stroke="none" 
	d="
M318.904297,278.998718 
	C321.505219,278.282806 324.381378,278.049530 326.652283,276.754791 
	C332.107849,273.644409 337.805450,272.388397 344.432373,272.998169 
	C352.193359,274.193726 358.195496,277.101959 360.471771,284.897217 
	C360.611115,285.374390 361.019379,286.026398 360.842499,286.305145 
	C357.290405,291.902100 362.508118,295.955658 363.159760,300.744720 
	C363.856873,305.867645 363.231934,311.272980 362.430695,316.438171 
	C362.172150,318.104828 359.768829,320.147247 357.934479,320.738007 
	C350.097504,323.261841 342.318146,326.427399 333.674561,324.279327 
	C332.268616,323.929901 329.712982,325.274261 328.741486,326.604523 
	C323.919373,333.207275 317.614319,335.870605 310.066284,332.748627 
	C304.191162,330.318573 298.866577,326.571838 293.233490,323.528412 
	C292.258423,323.001587 290.949554,322.821167 289.821228,322.893219 
	C282.373077,323.368774 274.871582,323.293304 269.332275,317.563385 
	C267.054688,315.207397 266.411469,311.291382 264.949860,308.119537 
	C263.993744,306.044769 263.430145,303.122864 261.773468,302.162231 
	C256.831421,299.296417 254.649567,295.340057 255.035126,289.853119 
	C255.412292,284.485199 258.901764,281.673340 264.314026,279.934875 
	C270.763489,276.196747 276.512146,272.523224 282.650024,268.879822 
	C285.549286,268.591309 288.059296,268.272705 290.940857,267.937653 
	C297.232849,270.284668 303.153351,272.648163 309.340881,275.204132 
	C312.156708,278.016785 313.612610,283.457458 318.904297,278.998718 
z"/>
<path fill="#F5DCC3" opacity="1.000000" stroke="none" 
	d="
M147.945099,282.354004 
	C148.812027,281.897858 149.833115,282.072571 150.413559,281.646698 
	C157.714020,276.290619 165.788101,276.227234 174.802536,278.271423 
	C177.215836,279.006958 178.987061,279.468811 180.997406,280.193970 
	C182.948059,281.670715 184.659607,282.884155 186.049698,283.869659 
	C191.093018,281.446259 195.764404,279.201569 200.927704,276.978821 
	C203.692001,276.989166 205.964371,276.977600 208.614441,276.965546 
	C214.289383,278.277069 219.586624,279.589050 224.883850,280.901031 
	C225.149399,281.495148 225.248169,282.362427 225.705841,282.641846 
	C231.414398,286.127136 231.903366,291.239014 230.286835,297.087524 
	C232.796402,298.948456 235.777771,300.405792 237.702286,302.735992 
	C242.365173,308.381836 238.275726,317.714722 229.964661,320.867035 
	C220.800125,324.343079 211.638824,325.208923 202.816010,320.013275 
	C191.252823,338.737518 176.259262,337.169006 160.933350,322.938751 
	C154.625153,328.184326 147.174362,330.685425 138.916977,329.905762 
	C135.522812,329.585297 132.091492,328.595917 128.912308,327.323212 
	C124.695076,325.634888 122.639069,322.470154 122.848526,317.543304 
	C123.063240,312.492798 122.560272,307.386108 122.050537,302.336365 
	C121.267815,294.582520 129.929169,287.469177 138.245911,289.274109 
	C139.858459,289.624084 141.411987,290.246063 143.316635,290.844269 
	C144.853088,288.112762 146.373779,285.409271 147.945099,282.354004 
z"/>
<path fill="#C99E8D" opacity="1.000000" stroke="none" 
	d="
M225.053299,280.575623 
	C219.586624,279.589050 214.289383,278.277069 208.577667,276.563721 
	C212.710724,262.519470 216.697815,248.651871 222.039337,235.327240 
	C224.761047,228.537827 229.220459,222.107071 234.110336,216.592346 
	C245.709320,203.511215 260.719238,205.479095 269.258362,220.597092 
	C270.317841,222.472855 271.203949,224.453568 272.074615,226.427887 
	C278.037811,239.949661 281.027161,254.189957 282.260834,268.849731 
	C276.512146,272.523224 270.763489,276.196747 264.691406,279.895081 
	C262.328125,268.668945 260.406952,257.394440 258.190216,246.178391 
	C257.298645,241.667267 256.420288,236.085373 251.113525,235.208389 
	C245.293350,234.246582 241.426712,238.872238 239.384155,243.630188 
	C234.616226,254.736664 230.559769,266.148621 226.221207,277.439209 
	C225.864655,278.367065 225.554459,279.312775 225.053299,280.575623 
z"/>
<path fill="#FDFCFB" opacity="1.000000" stroke="none" 
	d="
M180.758286,279.930664 
	C178.987061,279.468811 177.215836,279.006958 175.231110,278.275879 
	C178.151474,266.162231 180.520142,254.046204 184.604858,242.539307 
	C190.235901,226.676315 197.898315,211.639771 209.177521,198.883743 
	C220.979111,185.536972 234.584488,175.521591 253.672440,175.897385 
	C269.511902,176.209213 281.112488,184.374649 290.682007,195.756989 
	C308.224182,216.622330 315.889862,241.418976 318.062988,268.198212 
	C318.331116,271.502472 318.665283,274.801422 318.936584,278.550781 
	C313.612610,283.457458 312.156708,278.016785 309.381653,274.744568 
	C308.080688,250.319336 303.269135,227.511398 290.495239,207.076279 
	C280.820587,191.599197 267.588348,181.375259 248.191360,183.182861 
	C235.122330,184.400772 224.801544,191.533676 216.189102,200.992325 
	C195.782471,223.404068 185.594498,250.486511 180.758286,279.930664 
z"/>
<path fill="#C97F69" opacity="1.000000" stroke="none" 
	d="
M180.997406,280.193970 
	C185.594498,250.486511 195.782471,223.404068 216.189102,200.992325 
	C224.801544,191.533676 235.122330,184.400772 248.191360,183.182861 
	C267.588348,181.375259 280.820587,191.599197 290.495239,207.076279 
	C303.269135,227.511398 308.080688,250.319336 309.114624,274.552063 
	C303.153351,272.648163 297.232849,270.284668 290.888245,267.489624 
	C289.300232,260.355408 288.575775,253.539490 286.882477,246.973404 
	C283.161011,232.542755 277.946899,218.702606 267.132935,207.848282 
	C258.934906,199.619583 249.585312,198.542892 239.375168,204.086975 
	C231.512177,208.356567 225.949799,214.897934 221.347916,222.311752 
	C210.881775,239.173096 204.525848,257.639069 200.435791,276.956879 
	C195.764404,279.201569 191.093018,281.446259 186.049698,283.869659 
	C184.659607,282.884155 182.948059,281.670715 180.997406,280.193970 
z"/>
<path fill="#FDFCFB" opacity="1.000000" stroke="none" 
	d="
M200.927704,276.978821 
	C204.525848,257.639069 210.881775,239.173096 221.347916,222.311752 
	C225.949799,214.897934 231.512177,208.356567 239.375168,204.086975 
	C249.585312,198.542892 258.934906,199.619583 267.132935,207.848282 
	C277.946899,218.702606 283.161011,232.542755 286.882477,246.973404 
	C288.575775,253.539490 289.300232,260.355408 290.516754,267.506042 
	C288.059296,268.272705 285.549286,268.591309 282.650024,268.879822 
	C281.027161,254.189957 278.037811,239.949661 272.074615,226.427887 
	C271.203949,224.453568 270.317841,222.472855 269.258362,220.597092 
	C260.719238,205.479095 245.709320,203.511215 234.110336,216.592346 
	C229.220459,222.107071 224.761047,228.537827 222.039337,235.327240 
	C216.697815,248.651871 212.710724,262.519470 208.199951,276.564209 
	C205.964371,276.977600 203.692001,276.989166 200.927704,276.978821 
z"/>
</svg>